# xmcd
#
# Track frame offsets: 
#        150
#        18038
#        36075
#        54688
#        69500
#        85063
#        101163
#        118963
#        131300
#        145688
#        165788
#        183638
#        203200
#        221800
#        243013
#        257525
#
# Disc length: 3667 seconds
#
# Revision: 1
# Processed by: cddbd v1.5.2PL0 Copyright (c) Steve Scherf et al.
# Submitted via: ExactAudioCopy v0.99pb5
#
DISCID=d80e5110
DTITLE=鍾鎮濤 - 還有你新曲+精選 [CD1]
DYEAR=2002
DGENRE=Pop
TTITLE0=還有你給我快樂
TTITLE1=讓一切隨風
TTITLE2=痴心的一句
TTITLE3=閃閃星辰
TTITLE4=兩點水
TTITLE5=夢裡嫣紅
TTITLE6=愛情組曲 (蔡國權、張學友、鍾鎮濤)
TTITLE7=不可以不想你
TTITLE8=讓我坦蕩蕩
TTITLE9=我寂寞
TTITLE10=情變
TTITLE11=You've lost that loving feeling
TTITLE12=仍是那樣
TTITLE13=愛永遠萬能
TTITLE14=活在記念中
TTITLE15=給朋友
EXTD=
EXTT0=
EXTT1=
EXTT2=
EXTT3=
EXTT4=
EXTT5=
EXTT6=
EXTT7=
EXTT8=
EXTT9=
EXTT10=
EXTT11=
EXTT12=
EXTT13=
EXTT14=
EXTT15=
PLAYORDER=
